<svg width="0" height="0" class="hidden">
  <symbol fill="#ffffff" xmlns="http://www.w3.org/2000/svg" preserveAspectRatio="xMidYMid" viewBox="0 0 14.906 32" id="facebook-svgrepo-com">
    <g id="SVGRepo_bgCarrier" stroke-width="0"></g>
    <g id="SVGRepo_tracerCarrier" stroke-linecap="round" stroke-linejoin="round"></g>
    <g id="SVGRepo_iconCarrier">
      <path d="M14.874,11.167 L14.262,14.207 C14.062,15.208 13.100,15.992 12.072,15.992 L10.000,15.992 L10.000,30.000 C10.000,31.104 9.159,32.000 8.049,32.000 L5.030,32.000 C3.920,32.000 3.017,31.102 3.017,29.999 L3.017,15.992 L2.011,15.992 C0.901,15.992 -0.002,15.095 -0.002,13.991 L-0.002,10.990 C-0.002,9.887 0.901,8.989 2.011,8.989 L3.017,8.989 L3.017,6.003 C3.017,2.716 5.693,0.041 8.994,0.013 C9.015,0.012 9.033,0.001 9.055,0.001 L13.081,0.001 C13.636,0.001 14.000,0.448 14.000,1.000 L14.000,6.000 C14.000,6.553 13.636,7.004 13.081,7.004 L10.061,7.004 L10.060,8.989 L13.079,8.989 C13.645,8.989 14.167,9.228 14.509,9.644 C14.852,10.059 14.985,10.615 14.874,11.167 ZM9.092,10.990 C9.078,10.991 9.067,10.998 9.053,10.998 L9.053,10.998 C8.497,10.997 8.046,10.549 8.047,9.997 L8.047,9.990 C8.047,9.990 8.047,9.990 8.047,9.990 C8.047,9.990 8.047,9.990 8.047,9.990 L8.049,6.003 C8.049,5.450 8.499,5.003 9.055,5.003 L12.074,5.003 L12.074,2.002 L9.094,2.002 C9.077,2.002 9.063,2.011 9.045,2.011 C6.831,2.011 5.030,3.802 5.030,6.003 L5.030,10.005 C5.030,10.558 4.579,11.006 4.023,11.006 C3.996,11.006 3.973,10.992 3.946,10.990 L2.011,10.990 L2.011,13.991 L4.023,13.991 C4.579,13.991 5.030,14.439 5.030,14.992 C5.030,15.044 5.008,15.088 5.000,15.138 L5.000,30.000 L8.049,29.999 L8.049,15.002 C8.049,14.998 8.047,14.995 8.047,14.992 C8.047,14.439 8.497,13.991 9.053,13.991 L12.072,13.991 C12.145,13.991 12.275,13.886 12.288,13.816 L12.857,10.990 L9.092,10.990 Z"></path>
    </g>
  </symbol>
  <symbol fill="none" xmlns="http://www.w3.org/2000/svg" viewBox="0 0 960 960" id="instagram-svgrepo-com">
    <path d="M599.256 326.893C638.207 324.995 644.199 388.816 601.453 383.223C565.997 382.224 561.503 327.892 599.256 326.893Z" fill="white"></path>
    <path d="M726.895 478.902C729.991 250.487 638.505 220.924 429.866 233.608C286.146 222.522 229.716 331.386 229.317 460.125C221.527 586.168 260.378 745.468 417.282 732.085C613.137 728.59 735.984 708.714 726.895 478.902ZM384.423 85.7931C608.743 64.9192 868.418 97.079 871.514 377.828C879.404 507.066 883.599 645.593 820.278 762.847C752.862 877.503 640.503 872.709 523.649 875.406C420.877 879.501 314.91 888.39 215.834 854.732C114.86 819.776 87.3942 743.571 89.5915 643.895C86.0959 558.103 82.6002 472.51 84.0984 386.617C89.0921 183.071 177.981 81.099 384.423 85.7931Z" fill="#000000"></path>
    <path d="M429.866 233.608C638.505 220.924 729.89 250.487 726.894 478.902C735.983 708.714 613.136 728.49 417.381 732.085C260.377 745.469 221.626 586.068 229.416 460.125C229.716 331.386 286.145 222.522 429.866 233.608ZM682.949 486.093C682.949 344.67 665.571 269.763 504.972 276.954C457.231 281.648 401.401 274.557 353.461 290.837C257.181 337.878 270.465 467.216 279.354 556.904C288.043 701.823 408.193 697.528 520.652 681.349C658.779 674.058 684.248 614.432 682.949 486.093Z" fill="white"></path>
    <path d="M495.188 393.309C393.515 388.116 362.155 555.606 473.715 560.101C578.584 557.604 594.664 423.172 495.188 393.309ZM473.915 354.857C649.495 342.972 638.709 602.448 473.116 600.65C316.212 595.856 330.894 368.84 473.915 354.857Z" fill="white"></path>
    <path d="M473.813 560.102C362.252 555.508 393.513 388.017 495.286 393.31C594.662 423.173 578.582 557.605 473.813 560.102Z" fill="#000000"></path>
    <path d="M504.973 276.955C665.572 269.664 683.05 344.67 682.95 486.093C684.149 614.433 658.781 674.058 520.653 681.349C408.194 697.529 288.044 701.823 279.355 556.905C270.466 467.117 257.282 337.878 353.462 290.837C401.402 274.558 457.233 281.649 504.973 276.955ZM473.213 600.65C638.706 602.448 649.592 342.972 474.012 354.857C330.89 368.84 316.209 595.856 473.213 600.65ZM601.452 383.222C644.199 388.815 638.206 325.094 599.255 326.892C561.502 327.891 565.997 382.223 601.452 383.222Z" fill="#000000"></path>
  </symbol>
  <symbol fill="none" xmlns="http://www.w3.org/2000/svg" stroke="#ffffff" stroke-width="0.624" viewBox="0 0 24 24" id="telegram-svgrepo-com">
    <g id="SVGRepo_bgCarrier" stroke-width="0"></g>
    <g id="SVGRepo_tracerCarrier" stroke-linecap="round" stroke-linejoin="round"></g>
    <g id="SVGRepo_iconCarrier">
      <path d="M12 4C10.4178 4 8.87103 4.46919 7.55544 5.34824C6.23985 6.22729 5.21447 7.47672 4.60897 8.93853C4.00347 10.4003 3.84504 12.0089 4.15372 13.5607C4.4624 15.1126 5.22433 16.538 6.34315 17.6569C7.46197 18.7757 8.88743 19.5376 10.4393 19.8463C11.9911 20.155 13.5997 19.9965 15.0615 19.391C16.5233 18.7855 17.7727 17.7602 18.6518 16.4446C19.5308 15.129 20 13.5823 20 12C20 9.87827 19.1571 7.84344 17.6569 6.34315C16.1566 4.84285 14.1217 4 12 4ZM15.93 9.48L14.62 15.67C14.52 16.11 14.26 16.21 13.89 16.01L11.89 14.53L10.89 15.46C10.8429 15.5215 10.7824 15.5715 10.7131 15.6062C10.6438 15.6408 10.5675 15.6592 10.49 15.66L10.63 13.66L14.33 10.31C14.5 10.17 14.33 10.09 14.09 10.23L9.55 13.08L7.55 12.46C7.12 12.33 7.11 12.03 7.64 11.83L15.35 8.83C15.73 8.72 16.05 8.94 15.93 9.48Z" fill="#000000"></path>
    </g>
  </symbol>
</svg>