<svg width="0" height="0" class="hidden">
  <symbol version="1.1" xmlns="http://www.w3.org/2000/svg" xmlns:xlink="http://www.w3.org/1999/xlink" fill="#FF5722" viewBox="0 -2.5 20 20" id="email-1573-svgrepo-com">
    <g id="SVGRepo_bgCarrier" stroke-width="0"></g>
    <g id="SVGRepo_tracerCarrier" stroke-linecap="round" stroke-linejoin="round"></g>
    <g id="SVGRepo_iconCarrier">
      <title>email [#FF5722]</title>
      <desc>Created with Sketch.</desc>
      <defs></defs>
      <g id="Page-1" stroke="none" stroke-width="1" fill="none" fill-rule="evenodd">
        <g id="Dribbble-Light-Preview" transform="translate(-300.000000, -922.000000)" fill="#FF5722">
          <g id="icons" transform="translate(56.000000, 160.000000)">
            <path d="M262,764.291 L254,771.318 L246,764.281 L246,764 L262,764 L262,764.291 Z M246,775 L246,766.945 L254,773.98 L262,766.953 L262,775 L246,775 Z M244,777 L264,777 L264,762 L244,762 L244,777 Z" id="email-[#FF5722]"></path>
          </g>
        </g>
      </g>
    </g>
  </symbol>
  <symbol fill="#FF5722" version="1.1" xmlns="http://www.w3.org/2000/svg" viewBox="0 0 32 32" id="location-pin-svgrepo-com">
    <g id="SVGRepo_bgCarrier" stroke-width="0"></g>
    <g id="SVGRepo_tracerCarrier" stroke-linecap="round" stroke-linejoin="round"></g>
    <g id="SVGRepo_iconCarrier">
      <path d="M16.114-0.011c-6.559 0-12.114 5.587-12.114 12.204 0 6.93 6.439 14.017 10.77 18.998 0.017 0.020 0.717 0.797 1.579 0.797h0.076c0.863 0 1.558-0.777 1.575-0.797 4.064-4.672 10-12.377 10-18.998 0-6.618-4.333-12.204-11.886-12.204zM16.515 29.849c-0.035 0.035-0.086 0.074-0.131 0.107-0.046-0.032-0.096-0.072-0.133-0.107l-0.523-0.602c-4.106-4.71-9.729-11.161-9.729-17.055 0-5.532 4.632-10.205 10.114-10.205 6.829 0 9.886 5.125 9.886 10.205 0 4.474-3.192 10.416-9.485 17.657zM16.035 6.044c-3.313 0-6 2.686-6 6s2.687 6 6 6 6-2.687 6-6-2.686-6-6-6zM16.035 16.044c-2.206 0-4.046-1.838-4.046-4.044s1.794-4 4-4c2.207 0 4 1.794 4 4 0.001 2.206-1.747 4.044-3.954 4.044z"></path>
    </g>
  </symbol>
  <symbol fill="#FF5722" version="1.1" xml:space="preserve" xmlns="http://www.w3.org/2000/svg" xmlns:xlink="http://www.w3.org/1999/xlink" viewBox="0 0 512 512" id="mobile-phone-smartphone-svgrepo-com">
    <g id="SVGRepo_bgCarrier" stroke-width="0"></g>
    <g id="SVGRepo_tracerCarrier" stroke-linecap="round" stroke-linejoin="round"></g>
    <g id="SVGRepo_iconCarrier">
      <g id="mobile_phone-smartphone-phone-heart-love">
        <path d="M305.376,217.024c10.275,13.376,8.235,32.626-3.614,44.605l-32.5,32.855c-7.318,7.398-19.204,7.398-26.522,0l-32.5-32.855 c-11.85-11.979-13.889-31.229-3.614-44.605c12.415-16.161,35.529-17.243,49.375-3.245 C269.847,199.782,292.961,200.863,305.376,217.024z M407.405,111.248l-19.953,20.461c-1.02,1.048-2.188,1.874-3.414,2.594v305.734 c0,22.055-17.945,40-40,40h-176c-22.055,0-40-17.945-40-40v-21.692c-1.257-0.729-2.456-1.57-3.5-2.644l-19.945-20.453 c-10.133-10.398-11.266-26.375-2.625-37.18c4.813-6.008,11.914-9.672,19.484-10.039c2.223-0.123,4.43,0.105,6.586,0.553V72.037 c0-22.055,17.945-40,40-40h176c19.542,0,35.793,14.108,39.258,32.662c2.343-0.548,4.771-0.796,7.25-0.669 c7.57,0.367,14.672,4.031,19.484,10.039c0,0,0,0,0.008,0C418.67,84.866,417.545,100.85,407.405,111.248z M224.037,440h64 c8.837,0,16-7.164,16-16s-7.163-16-16-16h-64c-8.836,0-16,7.164-16,16S215.201,440,224.037,440z M368.037,376V134.345 c-1.257-0.729-2.456-1.57-3.5-2.644l-19.945-20.453c-6.283-6.447-9.088-15.038-8.267-23.211H144.037v260.528 c2.114-0.432,4.284-0.656,6.508-0.536c7.57,0.367,14.672,4.031,19.484,10.039c0,0,0,0,0.008,0 c4.141,5.179,5.977,11.554,5.709,17.931H368.037z M135.998,404.537l19.953-20.461c4.438-4.547,5.133-11.578,1.586-16.008 c-1.977-2.469-4.734-3.906-7.773-4.055c-2.991-0.147-5.826,0.98-7.983,3.156c-1.455,1.512-3.478,2.469-5.744,2.469 c-0.014,0-0.025-0.008-0.039-0.008l0,0c-0.027,0-0.052-0.016-0.079-0.016c-1.062-0.017-2.08-0.217-3.002-0.608 c-0.624-0.26-1.134-0.719-1.676-1.129c-0.279-0.215-0.622-0.344-0.87-0.593c-0.029-0.029-0.071-0.038-0.099-0.067 c-2.039-2.086-4.688-3.219-7.516-3.219c-0.172,0-0.344,0.008-0.523,0.016c-3.031,0.148-5.797,1.586-7.773,4.055 c-3.539,4.43-2.844,11.461,1.586,16.008L135.998,404.537z M397.537,84.069c-1.977-2.469-4.734-3.906-7.773-4.055 c-2.976-0.116-5.826,0.981-7.983,3.157c-1.455,1.511-3.478,2.468-5.744,2.468c-0.014,0-0.025-0.008-0.039-0.008l0,0 c-0.027,0-0.052-0.016-0.079-0.016c-1.062-0.017-2.08-0.217-3.002-0.608c-0.624-0.26-1.134-0.719-1.676-1.129 c-0.279-0.215-0.622-0.344-0.87-0.593c-0.029-0.029-0.071-0.038-0.099-0.067c-2.039-2.086-4.688-3.219-7.516-3.219 c-0.172,0-0.344,0.008-0.523,0.016c-3.031,0.148-5.797,1.586-7.773,4.055c-3.539,4.43-2.844,11.461,1.586,16.008l19.953,20.461 l19.953-20.461C400.389,95.53,401.084,88.498,397.537,84.069z"></path>
      </g>
      <g id="Layer_1"></g>
    </g>
  </symbol>
</svg>


