<svg width="0" height="0" class="hidden">
  <symbol version="1.1" id="facebook-svgrepo-com" xmlns="http://www.w3.org/2000/svg" xmlns:xlink="http://www.w3.org/1999/xlink" xml:space="preserve" fill="#FF5722" viewBox="-40.88 -40.88 490.55 490.55">
    <g id="SVGRepo_bgCarrier" stroke-width="0"></g>
    <g id="SVGRepo_tracerCarrier" stroke-linecap="round" stroke-linejoin="round"></g>
    <g id="SVGRepo_iconCarrier">
      <path d="M353.701,0H55.087C24.665,0,0.002,24.662,0.002,55.085v298.616c0,30.423,24.662,55.085,55.085,55.085 h147.275l0.251-146.078h-37.951c-4.932,0-8.935-3.988-8.954-8.92l-0.182-47.087c-0.019-4.959,3.996-8.989,8.955-8.989h37.882 v-45.498c0-52.8,32.247-81.55,79.348-81.55h38.65c4.945,0,8.955,4.009,8.955,8.955v39.704c0,4.944-4.007,8.952-8.95,8.955 l-23.719,0.011c-25.615,0-30.575,12.172-30.575,30.035v39.389h56.285c5.363,0,9.524,4.683,8.892,10.009l-5.581,47.087 c-0.534,4.506-4.355,7.901-8.892,7.901h-50.453l-0.251,146.078h87.631c30.422,0,55.084-24.662,55.084-55.084V55.085 C408.786,24.662,384.124,0,353.701,0z"></path>
    </g>
  </symbol>
  <symbol version="1.1" id="linkedin-svgrepo-com" xmlns="http://www.w3.org/2000/svg" xmlns:xlink="http://www.w3.org/1999/xlink" xml:space="preserve" fill="#FF5722" viewBox="0 0 382 382">
    <g id="SVGRepo_bgCarrier" stroke-width="0"></g>
    <g id="SVGRepo_tracerCarrier" stroke-linecap="round" stroke-linejoin="round"></g>
    <g id="SVGRepo_iconCarrier">
      <path d="M347.445,0H34.555C15.471,0,0,15.471,0,34.555v312.889C0,366.529,15.471,382,34.555,382h312.889 C366.529,382,382,366.529,382,347.444V34.555C382,15.471,366.529,0,347.445,0z M118.207,329.844c0,5.554-4.502,10.056-10.056,10.056 H65.345c-5.554,0-10.056-4.502-10.056-10.056V150.403c0-5.554,4.502-10.056,10.056-10.056h42.806 c5.554,0,10.056,4.502,10.056,10.056V329.844z M86.748,123.432c-22.459,0-40.666-18.207-40.666-40.666S64.289,42.1,86.748,42.1 s40.666,18.207,40.666,40.666S109.208,123.432,86.748,123.432z M341.91,330.654c0,5.106-4.14,9.246-9.246,9.246H286.73 c-5.106,0-9.246-4.14-9.246-9.246v-84.168c0-12.556,3.683-55.021-32.813-55.021c-28.309,0-34.051,29.066-35.204,42.11v97.079 c0,5.106-4.139,9.246-9.246,9.246h-44.426c-5.106,0-9.246-4.14-9.246-9.246V149.593c0-5.106,4.14-9.246,9.246-9.246h44.426 c5.106,0,9.246,4.14,9.246,9.246v15.655c10.497-15.753,26.097-27.912,59.312-27.912c73.552,0,73.131,68.716,73.131,106.472 L341.91,330.654L341.91,330.654z"></path>
    </g>
  </symbol>
  <symbol fill="#FF5722" version="1.1" xmlns="http://www.w3.org/2000/svg" viewBox="0 0 32 32" id="twitter-svgrepo-com">
    <g id="SVGRepo_bgCarrier" stroke-width="0"></g>
    <g id="SVGRepo_tracerCarrier" stroke-linecap="round" stroke-linejoin="round"></g>
    <g id="SVGRepo_iconCarrier">
      <title>twitter</title>
      <path d="M30.917 6.728c-1.026 0.465-2.217 0.805-3.464 0.961l-0.061 0.006c1.268-0.771 2.222-1.952 2.687-3.354l0.013-0.044c-1.124 0.667-2.431 1.179-3.82 1.464l-0.082 0.014c-1.123-1.199-2.717-1.946-4.485-1.946-3.391 0-6.14 2.749-6.14 6.14 0 0.496 0.059 0.979 0.17 1.441l-0.008-0.042c-5.113-0.254-9.613-2.68-12.629-6.366l-0.025-0.031c-0.522 0.873-0.831 1.926-0.831 3.052 0 0.013 0 0.026 0 0.039v-0.002c0 0.001 0 0.003 0 0.005 0 2.12 1.075 3.989 2.709 5.093l0.022 0.014c-1.026-0.034-1.979-0.315-2.811-0.785l0.031 0.016v0.075c0 0.001 0 0.002 0 0.002 0 2.961 2.095 5.434 4.884 6.014l0.040 0.007c-0.484 0.135-1.040 0.212-1.614 0.212-0.406 0-0.802-0.039-1.186-0.113l0.039 0.006c0.813 2.459 3.068 4.212 5.739 4.264l0.006 0c-2.072 1.638-4.721 2.627-7.602 2.627-0.005 0-0.009 0-0.014 0h0.001c-0.515-0.001-1.022-0.031-1.521-0.089l0.061 0.006c2.663 1.729 5.92 2.757 9.418 2.757 0.005 0 0.009 0 0.014 0h-0.001c0.037 0 0.082 0 0.126 0 9.578 0 17.343-7.765 17.343-17.343 0-0.039-0-0.077-0-0.116l0 0.006c0-0.262 0-0.524-0.019-0.786 1.21-0.878 2.229-1.931 3.042-3.136l0.028-0.044z"></path>
    </g>
  </symbol>
</svg>