<svg width="0" height="0" class="hidden">
  <symbol fill="#000000" xmlns="http://www.w3.org/2000/svg" preserveAspectRatio="xMidYMid" viewBox="0 0 14.906 32" id="facebook-svgrepo-com">
    <path d="M14.874,11.167 L14.262,14.207 C14.062,15.208 13.100,15.992 12.072,15.992 L10.000,15.992 L10.000,30.000 C10.000,31.104 9.159,32.000 8.049,32.000 L5.030,32.000 C3.920,32.000 3.017,31.102 3.017,29.999 L3.017,15.992 L2.011,15.992 C0.901,15.992 -0.002,15.095 -0.002,13.991 L-0.002,10.990 C-0.002,9.887 0.901,8.989 2.011,8.989 L3.017,8.989 L3.017,6.003 C3.017,2.716 5.693,0.041 8.994,0.013 C9.015,0.012 9.033,0.001 9.055,0.001 L13.081,0.001 C13.636,0.001 14.000,0.448 14.000,1.000 L14.000,6.000 C14.000,6.553 13.636,7.004 13.081,7.004 L10.061,7.004 L10.060,8.989 L13.079,8.989 C13.645,8.989 14.167,9.228 14.509,9.644 C14.852,10.059 14.985,10.615 14.874,11.167 ZM9.092,10.990 C9.078,10.991 9.067,10.998 9.053,10.998 L9.053,10.998 C8.497,10.997 8.046,10.549 8.047,9.997 L8.047,9.990 C8.047,9.990 8.047,9.990 8.047,9.990 C8.047,9.990 8.047,9.990 8.047,9.990 L8.049,6.003 C8.049,5.450 8.499,5.003 9.055,5.003 L12.074,5.003 L12.074,2.002 L9.094,2.002 C9.077,2.002 9.063,2.011 9.045,2.011 C6.831,2.011 5.030,3.802 5.030,6.003 L5.030,10.005 C5.030,10.558 4.579,11.006 4.023,11.006 C3.996,11.006 3.973,10.992 3.946,10.990 L2.011,10.990 L2.011,13.991 L4.023,13.991 C4.579,13.991 5.030,14.439 5.030,14.992 C5.030,15.044 5.008,15.088 5.000,15.138 L5.000,30.000 L8.049,29.999 L8.049,15.002 C8.049,14.998 8.047,14.995 8.047,14.992 C8.047,14.439 8.497,13.991 9.053,13.991 L12.072,13.991 C12.145,13.991 12.275,13.886 12.288,13.816 L12.857,10.990 L9.092,10.990 Z"></path>
  </symbol>
  <symbol xmlns="http://www.w3.org/2000/svg" viewBox="0 0 32 32" id="instagram-f-svgrepo-com">
    <g fill="none" fill-rule="evenodd">
      <path d="m0 0h32v32h-32z"></path>
      <path d="m17.0830929.03277248c8.1190907 0 14.7619831 6.64289236 14.7619831 14.76198302v2.3064326c0 8.1190906-6.6429288 14.761983-14.7619831 14.761983h-2.3064325c-8.11909069 0-14.76198306-6.6428924-14.76198306-14.761983v-2.3064326c0-8.11909066 6.64289237-14.76198302 14.76198306-14.76198302zm-.8630324 8.0002641-.2053832-.0002641c-1.7102378 0-3.4204757.05652851-3.4204757.05652851-2.4979736 0-4.52299562 2.02501761-4.52299562 4.52298561 0 0-.05191606 1.4685349-.05624239 3.0447858l-.00028625.2060969c0 1.7648596.05652864 3.590089.05652864 3.5900891 0 2.497968 2.02502202 4.5229856 4.52299562 4.5229856 0 0 1.5990132.0565285 3.2508899.0565285 1.7648634 0 3.6466255-.0565285 3.6466255-.0565285 2.4979736 0 4.4664317-1.9684539 4.4664317-4.4664219 0 0 .0565286-1.8046833.0565286-3.5335605l-.0010281-.4057303c-.0076601-1.5511586-.0555357-3.0148084-.0555357-3.0148084 0-2.4979681-1.9684582-4.46642191-4.4664317-4.46642191 0 0-1.6282521-.05209668-3.2716213-.05626441zm-.2053831 1.43969747c1.4024317 0 3.2005639.04637875 3.2005638.04637875 2.0483524 0 3.3130573 1.2647021 3.3130573 3.31305 0 0 .0463789 1.7674322.0463789 3.1541781 0 1.4176885-.0463789 3.2469355-.0463789 3.2469355 0 2.048348-1.2647049 3.31305-3.3130573 3.31305 0 0-1.5901757.0389711-2.9699093.0454662l-.3697206.0009126c-1.3545375 0-3.0049692-.0463788-3.0049692-.0463788-2.0483172 0-3.36958592-1.321301-3.36958592-3.3695785 0 0-.04637885-1.8359078-.04637885-3.2830941 0-1.3545344.04637885-3.061491.04637885-3.061491 0-2.0483479 1.32130402-3.31305 3.36958592-3.31305 0 0 1.7416035-.04637875 3.1440353-.04637875zm-.0000353 2.46195055c-2.2632951 0-4.0980441 1.8347448-4.0980441 4.098035s1.8347489 4.098035 4.0980441 4.098035 4.0980441-1.8347448 4.0980441-4.098035c0-2.2632901-1.8347489-4.098035-4.0980441-4.098035zm0 1.4313625c1.4727754 0 2.6666784 1.1939004 2.6666784 2.6666725s-1.193903 2.6666726-2.6666784 2.6666726c-1.4727401 0-2.6666784-1.1939005-2.6666784-2.6666726s1.1939031-2.6666725 2.6666784-2.6666725zm4.2941322-2.5685935c-.5468547 0-.9902027.4455321-.9902027.9950991 0 .5495671.443348.9950639.9902027.9950639.5468546 0 .9901674-.4454968.9901674-.9950639 0-.5496023-.4433128-.9950991-.9901674-.9950991z" fill="#202327" fill-rule="nonzero"></path>
    </g>
  </symbol>
  <symbol fill="#000000" version="1.1" id="linkedin-round-svgrepo-com (1)" xmlns="http://www.w3.org/2000/svg" xmlns:xlink="http://www.w3.org/1999/xlink" xml:space="preserve" viewBox="-143 145 512 512">
    <g id="SVGRepo_bgCarrier" stroke-width="0"></g>
    <g id="SVGRepo_tracerCarrier" stroke-linecap="round" stroke-linejoin="round"></g>
    <g id="SVGRepo_iconCarrier">
      <path d="M113,145c-141.4,0-256,114.6-256,256s114.6,256,256,256s256-114.6,256-256S254.4,145,113,145z M41.4,508.1H-8.5V348.4h49.9 V508.1z M15.1,328.4h-0.4c-18.1,0-29.8-12.2-29.8-27.7c0-15.8,12.1-27.7,30.5-27.7c18.4,0,29.7,11.9,30.1,27.7 C45.6,316.1,33.9,328.4,15.1,328.4z M241,508.1h-56.6v-82.6c0-21.6-8.8-36.4-28.3-36.4c-14.9,0-23.2,10-27,19.6 c-1.4,3.4-1.2,8.2-1.2,13.1v86.3H71.8c0,0,0.7-146.4,0-159.7h56.1v25.1c3.3-11,21.2-26.6,49.8-26.6c35.5,0,63.3,23,63.3,72.4V508.1z "></path>
    </g>
  </symbol>
  <symbol xmlnsDc="http://purl.org/dc/elements/1.1/" xmlnsCc="http://creativecommons.org/ns#" xmlnsRdf="http://www.w3.org/1999/02/22-rdf-syntax-ns#" xmlnsSvg="http://www.w3.org/2000/svg" xmlns="http://www.w3.org/2000/svg" xmlns:xlink="http://www.w3.org/1999/xlink" version="1.1" viewBox="0 0 128 128" id="telegram-desktop-svgrepo-com">
    <title>Telegram App Icon</title>
    <desc>This is shape (source) for Clarity vector icon theme for gtk</desc>
    <metadata>
      <rdf:RDF>
        <cc:Work rdfAbout="">
          <dc:title>Telegram App Icon</dc:title>
          <dc:description>This is shape (source) for Clarity vector icon theme for gtk. Teleport icon based on https://www.iconfinder.com/icons/386727/telegram_icon</dc:description>
          <dc:creator>
            <cc:Agent>
              <dc:title>Jakub Jankiewicz</dc:title>
            </cc:Agent>
            <cc:Agent>
              <dc:title>Aha-Soft</dc:title>
            </cc:Agent>
          </dc:creator>
          <dc:rights>
            <cc:Agent>
              <dc:title>Jakub Jankiewicz</dc:title>
            </cc:Agent>
          </dc:rights>
          <dc:date>2010</dc:date>
          <dc:format>image/svg+xml</dc:format>
          <dc:type rdfResource="http://purl.org/dc/dcmitype/StillImage"></dc:type>
          <cc:license rdfResource="http://creativecommons.org/licenses/by-sa/3.0/"></cc:license>
        </cc:Work>
      </rdf:RDF>
    </metadata>
    <path d="M 64.000002,10.847658 C 34.644818,10.847767 10.847767,34.644818 10.847658,64.000002 10.84777,93.355184 34.64482,117.15223 64.000002,117.15234 93.355183,117.15223 117.15223,93.355183 117.15234,64.000002 117.15223,34.64482 93.355184,10.84777 64.000002,10.847658 Z m 27.533203,23.873047 c 2.159355,-0.07872 3.794128,1.876009 2.917969,5.388672 L 83.919924,89.74219 c -0.735207,3.5272 -2.86777,4.371077 -5.820313,2.742187 L 62.05469,80.628908 c -3.768605,3.664093 -7.144432,6.945669 -7.712891,7.501953 -0.893917,0.873247 -1.605929,1.605469 -3.210938,1.605469 -2.07976,0 -1.725837,-0.787042 -2.443359,-2.767578 L 42.785158,68.875002 27.359377,64.058596 c -3.426838,-1.049871 -3.45177,-3.403991 0.769531,-5.097656 l 61.84961,-23.855469 c 0.529657,-0.240389 1.056374,-0.3666 1.554687,-0.384766 z m -9.810547,10.556641 c -0.465094,-0.0065 -1.097161,0.159953 -1.748047,0.554687 L 45.207033,67.76758 51.064455,85.730471 52.224611,73.36719 81.996096,46.505861 c 0.816659,-0.724929 0.50172,-1.21776 -0.273438,-1.228515 z"></path>
  </symbol>
  <symbol fill="#000000" version="1.1" id="twitter-round-svgrepo-com" xmlns="http://www.w3.org/2000/svg" xmlns:xlink="http://www.w3.org/1999/xlink" xml:space="preserve" viewBox="-143 145 512 512">
    <path d="M113,145c-141.4,0-256,114.6-256,256s114.6,256,256,256s256-114.6,256-256S254.4,145,113,145z M215.2,361.2
	c0.1,2.2,0.1,4.5,0.1,6.8c0,69.5-52.9,149.7-149.7,149.7c-29.7,0-57.4-8.7-80.6-23.6c4.1,0.5,8.3,0.7,12.6,0.7
	c24.6,0,47.3-8.4,65.3-22.5c-23-0.4-42.5-15.6-49.1-36.5c3.2,0.6,6.5,0.9,9.9,0.9c4.8,0,9.5-0.6,13.9-1.9
	C13.5,430-4.6,408.7-4.6,383.2v-0.6c7.1,3.9,15.2,6.3,23.8,6.6c-14.1-9.4-23.4-25.6-23.4-43.8c0-9.6,2.6-18.7,7.1-26.5
	c26,31.9,64.7,52.8,108.4,55c-0.9-3.8-1.4-7.8-1.4-12c0-29,23.6-52.6,52.6-52.6c15.1,0,28.8,6.4,38.4,16.6
	c12-2.4,23.2-6.7,33.4-12.8c-3.9,12.3-12.3,22.6-23.1,29.1c10.6-1.3,20.8-4.1,30.2-8.3C234.4,344.5,225.5,353.7,215.2,361.2z"></path>
  </symbol>
</svg>